<svg id="Capa_1" enable-background="new 0 0 512.001 512.001" height="512" viewBox="0 0 512.001 512.001" width="512" xmlns="http://www.w3.org/2000/svg"><path d="m512.001 256.001c0 141.38-114.62 256-256 256-91.56 0-171.89-48.07-217.14-120.35-24.62-39.33-38.86-85.83-38.86-135.65 0-141.38 114.62-256 256-256 40.12 0 78.08 9.23 111.88 25.69 53 25.78 95.76 69.33 120.55 122.89 15.13 32.67 23.57 69.06 23.57 107.42z" fill="#ffd939"/><path d="m227.731 202.773c-11.916 0-22.467-8.547-24.595-20.688-7.981-45.533-23.493-58.086-28.59-62.211-12.293-9.948-28.597-13.61-47.476-17.85-32.73-7.351-73.465-16.5-102.268-64.072-7.151-11.811-3.374-27.183 8.438-34.334 11.812-7.152 27.183-3.373 34.334 8.438 17.771 29.351 41.019 34.572 70.453 41.183 43.265 9.717 97.11 21.81 114.358 120.213 2.384 13.6-6.708 26.557-20.309 28.941-1.458.256-2.912.38-4.345.38z" fill="#b16e3d"/><path d="m512.001 256.001c0 141.38-114.62 256-256 256-91.56 0-171.89-48.07-217.14-120.35 3.87-16.7 12.62-30.88 28.81-39.54l58.45-138.43c0-53.71 33.11-192.57 202.36-192.57 14.2 0 27.31 1.62 39.4 4.58 65.01 15.91 100.86 70.73 120.55 122.89 20.84 55.19 23.57 107.42 23.57 107.42z" fill="#985e33"/><path d="m217.211 459.051h-16.78c-39.29 0-75.34-12.49-104.68-33.54-52.02-37.32-82.96-101.52-73.59-170.57l5.66-41.71s4.23-30.02 12.88-58.95c8.03-26.89 19.88-52.84 35.68-52.84 0 0 11.38 3.91 24.14 13.87 10.82 8.42 22.63 21.2 29.32 39.6 0 0 9.54-6.76 27.03-12.54 12.83-4.26 29.96-7.97 50.73-8.11.41-.01.81-.01 1.22-.01 49.82 0 78.97 20.66 78.97 20.66 6.69-18.4 18.5-31.18 29.32-39.61 12.76-9.95 24.15-13.86 24.15-13.86 15.8 0 27.65 25.95 35.68 52.84 8.65 28.93 12.88 58.95 12.88 58.95l5.66 41.71c14.66 107.99-69.29 204.11-178.27 204.11z" fill="#b16e3d"/><path d="m207.601 134.261c-51.41 1.19-115.906 73.141-126.806 180.191-3.43 33.66 0 75.259 14.956 111.059-52.02-37.32-82.96-101.52-73.59-170.57l5.66-41.71s4.23-30.02 12.88-58.95c8.03-26.89 19.88-52.84 35.68-52.84 0 0 11.38 3.91 24.14 13.87 10.82 8.42 22.63 21.2 29.32 39.6 0 0 9.54-6.76 27.03-12.54 12.83-4.26 29.96-7.97 50.73-8.11z" fill="#985e33"/><g fill="#454045"><path d="m225.986 371.996 16.011-27.733c7.629-13.214-1.907-29.731-17.165-29.731h-32.023c-15.258 0-24.794 16.517-17.165 29.731l16.011 27.733c7.63 13.213 26.702 13.213 34.331 0z"/><path d="m189.025 411.671c-13.437 0-24.368-10.931-24.368-24.367v-7.066c0-2.762 2.239-5 5-5s5 2.238 5 5v7.066c0 7.922 6.445 14.367 14.368 14.367s14.368-6.445 14.368-14.367v-36.584c0-2.762 2.239-5 5-5s5 2.238 5 5v36.584c0 13.436-10.932 24.367-24.368 24.367z"/><path d="m227.76 411.671c-13.437 0-24.368-10.931-24.368-24.367v-36.584c0-2.762 2.239-5 5-5s5 2.238 5 5v36.584c0 7.922 6.445 14.367 14.368 14.367s14.368-6.445 14.368-14.367v-7.066c0-2.762 2.239-5 5-5 2.762 0 5 2.238 5 5v7.066c.001 13.436-10.931 24.367-24.368 24.367z"/></g><path d="m77.349 181.55c8.241-3.588 13.09-12.339 11.511-21.187-2.786-15.609-14.7-34.709-24.2-33.918-13.769 1.146-27.175 60.872-11.232 60.872 8.7-.001 17.616-3.022 23.921-5.767z" fill="#824922"/><path d="m340.293 181.55c-8.241-3.588-13.09-12.339-11.511-21.187 2.786-15.609 14.7-34.709 24.2-33.918 13.769 1.146 27.175 60.872 11.232 60.872-8.7-.001-17.616-3.022-23.921-5.767z" fill="#985e33"/><path d="m308.187 363.783c-18.875 0-33.661-21.669-33.661-49.331 0-2.761 2.238-5 5-5s5 2.239 5 5c0 21.32 10.836 39.331 23.661 39.331s23.66-18.011 23.66-39.331c0-2.761 2.238-5 5-5s5 2.239 5 5c0 27.662-14.785 49.331-33.66 49.331z" fill="#454045"/><path d="m109.456 363.783c-18.875 0-33.661-21.669-33.661-49.331 0-2.761 2.239-5 5-5s5 2.239 5 5c0 21.32 10.835 39.331 23.661 39.331s23.661-18.011 23.661-39.331c0-2.761 2.239-5 5-5s5 2.239 5 5c0 27.662-14.786 49.331-33.661 49.331z" fill="#454045"/><path d="m478.336 95.053h-65.968c-3.116 0-5.944-1.822-7.231-4.66-1.287-2.837-.796-6.165 1.256-8.51l52.905-60.444h-44.902c-4.386 0-7.94-3.555-7.94-7.94s3.554-7.94 7.94-7.94h62.404c3.116 0 5.944 1.822 7.231 4.66 1.287 2.837.796 6.165-1.256 8.51l-52.905 60.444h48.466c4.386 0 7.94 3.555 7.94 7.94s-3.554 7.94-7.94 7.94z" fill="#efe7e4"/><path d="m383.689 142.324h-48.208c-3.116 0-5.944-1.822-7.231-4.66s-.796-6.165 1.256-8.51l35.559-40.625h-28.102c-4.386 0-7.94-3.555-7.94-7.94s3.554-7.94 7.94-7.94h45.603c3.116 0 5.944 1.822 7.231 4.66 1.287 2.837.796 6.165-1.256 8.51l-35.559 40.625h30.707c4.386 0 7.94 3.555 7.94 7.94s-3.555 7.94-7.94 7.94z" fill="#efe7e4"/><path d="m306.361 163.712h-24.104c-3.116 0-5.944-1.822-7.231-4.66-1.287-2.837-.796-6.165 1.256-8.51l12.016-13.728h-5.301c-4.386 0-7.94-3.555-7.94-7.94s3.554-7.94 7.94-7.94h22.801c3.116 0 5.944 1.822 7.231 4.66 1.287 2.837.796 6.165-1.256 8.51l-12.016 13.728h6.603c4.386 0 7.94 3.555 7.94 7.94s-3.553 7.94-7.939 7.94z" fill="#efe7e4"/></svg>