<?xml version="1.0" encoding="utf-8"?>
<svg width="278px" height="278px" viewBox="0 0 278 278" version="1.1" xmlns:xlink="http://www.w3.org/1999/xlink" xmlns="http://www.w3.org/2000/svg">
  <desc>Created with Lunacy</desc>
  <defs>
    <filter id="filter_1">
      <feColorMatrix in="SourceGraphic" type="matrix" values="0 0 0 0 1 0 0 0 0 0.65882355 0 0 0 0 0.65882355 0 0 0 1 0" />
    </filter>
    <filter id="filter_2">
      <feColorMatrix in="SourceGraphic" type="matrix" values="0 0 0 0 0.5568628 0 0 0 0 0.9372549 0 0 0 0 0.6431373 0 0 0 1 0" />
    </filter>
    <path d="M0 0L278 0L278 278L0 278L0 0Z" id="path_1" />
    <clipPath id="mask_1">
      <use xlink:href="#path_1" />
    </clipPath>
  </defs>
  <g id="paw">
    <path d="M0 0L278 0L278 278L0 278L0 0Z" id="Background" fill="none" fill-rule="evenodd" stroke="none" />
    <g clip-path="url(#mask_1)">
      <g id="Group-2" transform="translate(75.281876 126.600006)" filter="url(#filter_1)">
        <g id="Group" transform="matrix(-1 -8.742278E-08 8.742278E-08 -1 128.25887 115.899994)" filter="url(#filter_2)">
          <g id="Group">
            <path d="M109.602 36.644C96.7892 19.0599 80.5934 4.06667e-13 63.9974 0C47.4013 4.06667e-13 31.2051 19.0599 18.3926 36.644C6.87566 52.4496 0 72.3691 0 89.9288C0 98.4587 3.41065 110.407 18.3926 113.4C33.3745 116.393 45.0449 112.789 51.9643 101.5C58.8836 90.2111 60.3365 82.2433 63.9974 82.4002C67.6582 82.5572 71.1122 93.7041 77.9184 101.5C84.7245 109.296 103.357 120.459 121.135 109.085C125.687 104.783 127.995 98.3378 127.995 89.9288C127.995 72.3691 121.12 52.4496 109.602 36.644L109.602 36.644Z" id="Shape" fill="#F25555" fill-rule="evenodd" stroke="none" />
          </g>
        </g>
      </g>
      <g id="Group" transform="matrix(0.98162717 0.190809 -0.190809 0.98162717 162.75702 52.04361)" filter="url(#filter_2)">
        <g id="Group">
          <path d="M44.5224 11.1279C39.7257 4.05573 32.8572 0 25.6778 0C18.498 0 11.6298 4.05611 6.83312 11.1279C2.42689 17.6246 0 26.1562 0 35.1513C0 44.1464 2.42651 52.6781 6.83312 59.1748C11.6298 66.2465 18.4983 70.3026 25.6778 70.3026C32.8576 70.3026 39.7257 66.2465 44.5224 59.1748C48.9287 52.6781 51.3556 44.1464 51.3556 35.1513C51.3556 26.1562 48.9291 17.6242 44.5224 11.1279L44.5224 11.1279Z" id="Shape" fill="#000000" fill-rule="evenodd" stroke="none" />
        </g>
      </g>
      <g id="Group" transform="matrix(0.9781476 -0.2079117 0.2079117 0.9781476 69.19997 51.187744)" filter="url(#filter_2)">
        <g id="Group">
          <path d="M51.4888 12.869C45.9416 4.69032 37.9988 0 29.6955 0C21.3923 0 13.4491 4.69076 7.90229 12.869C2.80662 20.3822 0 30.2488 0 40.6514C0 51.0539 2.80618 60.9205 7.90229 68.4337C13.4495 76.6124 21.3923 81.3032 29.6955 81.3032C37.9988 81.3032 45.9416 76.6124 51.4888 68.4337C56.5845 60.9205 59.3911 51.0544 59.3911 40.6514C59.3906 30.2488 56.5845 20.3818 51.4888 12.869L51.4888 12.869Z" id="Shape" fill="#000000" fill-rule="evenodd" stroke="none" />
        </g>
      </g>
      <g id="Group" transform="matrix(0.9612617 0.27563736 -0.27563736 0.9612617 222.5553 90.000015)" filter="url(#filter_2)">
        <g id="Group" transform="translate(0 -7.6293945E-06)">
          <path d="M42.8559 19.0858C40.9059 10.4549 36.7262 4.18349 31.0874 1.42754C26.5497 -0.790107 21.4274 -0.414095 16.664 2.48668C10.0995 6.48354 4.73396 14.7369 1.94392 25.1301C-0.336096 33.6231 -0.620473 42.6001 1.14375 50.4086C3.09371 59.0395 7.2734 65.3109 12.9126 68.0669C14.8641 69.0206 16.9231 69.4945 19.0154 69.4945C21.7889 69.4945 24.6212 68.6611 27.3364 67.0077C33.9009 63.0109 39.2665 54.7575 42.0565 44.3648L42.0565 44.3643C44.3361 35.8718 44.6205 26.8943 42.8559 19.0858L42.8559 19.0858Z" transform="translate(0 -7.6293945E-06)" id="Shape" fill="#000000" fill-rule="evenodd" stroke="none" />
        </g>
      </g>
      <g id="Group" transform="matrix(0.95105654 -0.30901703 0.30901703 0.95105654 25.678955 101.678116)" filter="url(#filter_2)">
        <g id="Group">
          <path d="M37.2772 20.0919C34.8038 11.7822 30.048 5.18369 24.2299 1.98804C20.0074 -0.33125 15.467 -0.631491 11.4452 1.14121C6.44685 3.34511 2.74214 8.35938 1.01377 15.2597C-0.549956 21.5029 -0.297895 28.6808 1.72301 35.4709L1.72301 35.4713C4.19668 43.7811 8.95216 50.3796 14.7703 53.5752C17.1773 54.8972 19.6874 55.5635 22.1457 55.5635C24.0003 55.5635 25.8256 55.1842 27.555 54.4221C32.554 52.2182 36.2584 47.2039 37.9868 40.3035C39.5498 34.0607 39.2977 26.8829 37.2772 20.0919L37.2772 20.0919Z" id="Shape" fill="#000000" fill-rule="evenodd" stroke="none" />
        </g>
      </g>
    </g>
  </g>
</svg>