<?xml version="1.0" encoding="UTF-8" standalone="no"?>
<svg
   xmlns:dc="http://purl.org/dc/elements/1.1/"
   xmlns:cc="http://creativecommons.org/ns#"
   xmlns:rdf="http://www.w3.org/1999/02/22-rdf-syntax-ns#"
   xmlns:svg="http://www.w3.org/2000/svg"
   xmlns="http://www.w3.org/2000/svg"
   xmlns:xlink="http://www.w3.org/1999/xlink"
   xmlns:sodipodi="http://sodipodi.sourceforge.net/DTD/sodipodi-0.dtd"
   xmlns:inkscape="http://www.inkscape.org/namespaces/inkscape"
   width="278px"
   height="278px"
   viewBox="0 0 278 278"
   version="1.1"
   id="svg933"
   sodipodi:docname="paw.svg"
   inkscape:version="1.0.1 (3bc2e813f5, 2020-09-07)">
  <metadata
     id="metadata937">
    <rdf:RDF>
      <cc:Work
         rdf:about="">
        <dc:format>image/svg+xml</dc:format>
        <dc:type
           rdf:resource="http://purl.org/dc/dcmitype/StillImage" />
      </cc:Work>
    </rdf:RDF>
  </metadata>
  <sodipodi:namedview
     pagecolor="#ffffff"
     bordercolor="#666666"
     borderopacity="1"
     objecttolerance="10"
     gridtolerance="10"
     guidetolerance="10"
     inkscape:pageopacity="0"
     inkscape:pageshadow="2"
     inkscape:window-width="1522"
     inkscape:window-height="1135"
     id="namedview935"
     showgrid="false"
     inkscape:zoom="2.4568345"
     inkscape:cx="139"
     inkscape:cy="139"
     inkscape:window-x="1546"
     inkscape:window-y="175"
     inkscape:window-maximized="0"
     inkscape:current-layer="g930" />
  <desc
     id="desc886">Created with Lunacy</desc>
  <defs
     id="defs898">
    <filter
       id="filter_1">
      <feColorMatrix
         in="SourceGraphic"
         type="matrix"
         values="0 0 0 0 1 0 0 0 0 0.65882355 0 0 0 0 0.65882355 0 0 0 1 0"
         id="feColorMatrix888" />
    </filter>
    <filter
       id="filter_2">
      <feColorMatrix
         in="SourceGraphic"
         type="matrix"
         values="0 0 0 0 0.5568628 0 0 0 0 0.9372549 0 0 0 0 0.6431373 0 0 0 1 0"
         id="feColorMatrix891" />
    </filter>
    <path
       d="M0 0L278 0L278 278L0 278L0 0Z"
       id="path_1" />
    <clipPath
       id="mask_1">
      <use
         xlink:href="#path_1"
         id="use895" />
    </clipPath>
    <filter
       id="filter_2-7">
      <feColorMatrix
         in="SourceGraphic"
         type="matrix"
         values="0 0 0 0 0.5568628 0 0 0 0 0.9372549 0 0 0 0 0.6431373 0 0 0 1 0"
         id="feColorMatrix891-3" />
    </filter>
    <filter
       id="filter965">
      <feColorMatrix
         in="SourceGraphic"
         type="matrix"
         values="0 0 0 0 0.5568628 0 0 0 0 0.9372549 0 0 0 0 0.6431373 0 0 0 1 0"
         id="feColorMatrix963" />
    </filter>
    <filter
       id="filter969">
      <feColorMatrix
         in="SourceGraphic"
         type="matrix"
         values="0 0 0 0 0.5568628 0 0 0 0 0.9372549 0 0 0 0 0.6431373 0 0 0 1 0"
         id="feColorMatrix967" />
    </filter>
    <filter
       id="filter973">
      <feColorMatrix
         in="SourceGraphic"
         type="matrix"
         values="0 0 0 0 0.5568628 0 0 0 0 0.9372549 0 0 0 0 0.6431373 0 0 0 1 0"
         id="feColorMatrix971" />
    </filter>
  </defs>
  <g
     id="paw">
    <g
       clip-path="url(#mask_1)"
       id="g930">
      <circle
         style="fill:#001649;fill-opacity:1;stroke-width:0.966102"
         id="path951"
         cx="138.79649"
         cy="139.61052"
         r="139.20351" />
      <g
         id="g910"
         transform="rotate(11,-178.99629,831.56577)"
         filter="url(#filter_2)"
         style="filter:url(#filter_2-7)">
        <g
           id="g908">
          <path
             d="M 44.5224,11.1279 C 39.7257,4.05573 32.8572,0 25.6778,0 18.498,0 11.6298,4.05611 6.83312,11.1279 2.42689,17.6246 0,26.1562 0,35.1513 c 0,8.9951 2.42651,17.5268 6.83312,24.0235 4.79668,7.0717 11.66518,11.1278 18.84468,11.1278 7.1798,0 14.0479,-4.0561 18.8446,-11.1278 4.4063,-6.4967 6.8332,-15.0284 6.8332,-24.0235 0,-8.9951 -2.4265,-17.5271 -6.8332,-24.0234 z"
             id="path906"
             fill="#000000"
             fill-rule="evenodd"
             stroke="none" />
        </g>
      </g>
      <g
         id="g916"
         transform="rotate(-12.000001,261.99927,-269.82222)"
         filter="url(#filter_2)"
         style="filter:url(#filter_2-7)">
        <g
           id="g914">
          <path
             d="M 51.4888,12.869 C 45.9416,4.69032 37.9988,0 29.6955,0 21.3923,0 13.4491,4.69076 7.90229,12.869 2.80662,20.3822 0,30.2488 0,40.6514 0,51.0539 2.80618,60.9205 7.90229,68.4337 13.4495,76.6124 21.3923,81.3032 29.6955,81.3032 c 8.3033,0 16.2461,-4.6908 21.7933,-12.8695 5.0957,-7.5132 7.9023,-17.3793 7.9023,-27.7823 -5e-4,-10.4026 -2.8066,-20.2696 -7.9023,-27.7824 z"
             id="path912"
             fill="#000000"
             fill-rule="evenodd"
             stroke="none" />
        </g>
      </g>
      <g
         id="g922"
         transform="rotate(16,-203.31162,809.23641)"
         filter="url(#filter_2)"
         style="filter:url(#filter_2-7)">
        <g
           id="g920">
          <path
             d="M 42.8559,19.0858 C 40.9059,10.4549 36.7262,4.18349 31.0874,1.42754 26.5497,-0.790107 21.4274,-0.414095 16.664,2.48668 10.0995,6.48354 4.73396,14.7369 1.94392,25.1301 c -2.280016,8.493 -2.564393,17.47 -0.80017,25.2785 1.94996,8.6309 6.12965,14.9023 11.76885,17.6583 1.9515,0.9537 4.0105,1.4276 6.1028,1.4276 2.7735,0 5.6058,-0.8334 8.321,-2.4868 6.5645,-3.9968 11.9301,-12.2502 14.7201,-22.6429 v -5e-4 c 2.2796,-8.4925 2.564,-17.47 0.7994,-25.2785 z"
             id="path918"
             fill="#000000"
             fill-rule="evenodd"
             stroke="none" />
        </g>
      </g>
      <g
         id="g928"
         transform="rotate(-18.000002,321.89337,-8.2484862)"
         filter="url(#filter_2)"
         style="filter:url(#filter_2-7)">
        <g
           id="g926">
          <path
             d="M 37.2772,20.0919 C 34.8038,11.7822 30.048,5.18369 24.2299,1.98804 20.0074,-0.33125 15.467,-0.631491 11.4452,1.14121 6.44685,3.34511 2.74214,8.35938 1.01377,15.2597 -0.549956,21.5029 -0.297895,28.6808 1.72301,35.4709 v 4e-4 c 2.47367,8.3098 7.22915,14.9083 13.04729,18.1039 2.407,1.322 4.9171,1.9883 7.3754,1.9883 1.8546,0 3.6799,-0.3793 5.4093,-1.1414 4.999,-2.2039 8.7034,-7.2182 10.4318,-14.1186 1.563,-6.2428 1.3109,-13.4206 -0.7096,-20.2116 z"
             id="path924"
             fill="#000000"
             fill-rule="evenodd"
             stroke="none" />
        </g>
      </g>
      <path
         style="fill:#8ee4af;stroke-width:0.407028"
         d="m 57.20141,145.29823 c -3.333218,-0.53099 -9.094526,-3.55454 -12.268739,-6.43866 -6.658257,-6.04976 -11.38056,-15.10099 -12.565483,-24.08426 -1.165897,-8.83902 1.999479,-16.641032 8.015057,-19.755488 4.641466,-2.403033 9.876994,-2.108834 15.551973,0.873909 12.638025,6.642489 21.245122,24.448229 18.154564,37.556829 -1.987342,8.42933 -8.715359,13.1495 -16.887372,11.84767 z"
         id="path939" />
      <path
         style="fill:#8ee4af;stroke-width:0.407028"
         d="M 105.60368,121.54807 C 92.624652,118.25413 81.871539,104.84927 78.388905,87.622058 74.171307,66.759272 82.256945,47.713374 97.29365,43.091513 c 3.34552,-1.028319 8.21999,-1.175453 11.60029,-0.35015 11.04199,2.695908 20.8836,13.148613 25.57566,27.163717 2.17001,6.48176 2.70778,10.116378 2.67025,18.047318 -0.0301,6.357269 -0.15009,7.560167 -1.11641,11.1898 -2.93829,11.036722 -9.22236,18.834212 -17.58191,21.816212 -3.12938,1.11631 -9.59293,1.41319 -12.83785,0.58966 z"
         id="path941" />
      <path
         style="fill:#8ee4af;stroke-width:0.407028"
         d="m 173.20434,122.6003 c -2.86965,-0.92261 -3.79275,-1.41445 -6.44588,-3.43443 -4.07975,-3.10615 -7.27345,-8.19665 -9.29259,-14.81164 -1.00553,-3.29428 -1.09529,-4.16603 -1.12304,-10.906957 -0.0237,-5.760587 0.13056,-8.022462 0.72178,-10.582723 4.40954,-19.095538 18.96537,-31.62553 32.61012,-28.071525 3.5918,0.935546 6.21311,2.523302 9.38564,5.684995 3.49066,3.478737 5.89211,7.868426 7.40965,13.544327 0.91473,3.421287 1.06186,4.813192 1.08518,10.2668 0.0201,4.693253 -0.1653,7.194949 -0.72386,9.768668 -3.15497,14.537415 -11.78434,25.474705 -22.60937,28.656245 -2.93179,0.86167 -8.15132,0.80778 -11.01763,-0.11376 z"
         id="path943" />
      <path
         style="fill:#8ee4af;stroke-width:0.407028"
         d="m 221.34106,158.85485 c -4.38498,-1.75524 -7.81326,-5.72572 -9.5324,-11.04001 -1.22062,-3.77323 -1.49538,-11.92546 -0.56858,-16.86973 2.75776,-14.71201 11.89112,-28.77856 22.20437,-34.197617 11.52761,-6.05713 21.3287,-1.762487 24.71095,10.827857 0.92338,3.43728 0.90004,11.95998 -0.0447,16.30433 -2.33701,10.74704 -7.30819,20.07036 -14.48275,27.16202 -6.16647,6.09523 -11.15728,8.56566 -17.22327,8.52545 -2.14345,-0.0142 -3.95698,-0.26932 -5.06365,-0.7123 z"
         id="path945" />
      <path
         style="fill:#fe6ed4;fill-opacity:1;stroke-width:0.407028"
         d="m 135.55426,239.19053 c -7.56883,-1.77458 -13.60897,-5.5534 -22.12679,-13.84292 -7.07528,-6.88565 -16.094439,-17.99753 -22.067658,-27.18805 -5.065938,-7.79456 -10.133795,-19.46241 -12.333007,-28.39458 -3.476844,-14.12132 -3.510279,-25.35913 -0.09742,-32.74581 1.820999,-3.94132 3.784778,-6.02145 7.322038,-7.75588 10.123212,-4.96372 21.838317,-3.80052 32.640877,3.24093 6.07914,3.96259 8.57643,6.89342 14.68131,17.2301 3.57628,6.05529 5.10183,7.81983 6.76075,7.81983 1.77033,0 2.89096,-1.52866 6.71365,-9.15813 4.50659,-8.99443 6.88164,-12.64167 10.28263,-15.79046 3.30676,-3.06155 6.70333,-4.86395 11.37342,-6.03533 2.9739,-0.74593 4.20733,-0.83261 9.15813,-0.64354 6.73678,0.25728 10.19849,0.96063 14.19346,2.88385 5.30446,2.55362 9.38544,7.73487 11.09838,14.09061 0.907,3.36535 0.89817,11.84609 -0.0186,17.90922 -1.83758,12.15236 -6.77682,25.40775 -13.54385,36.34747 -4.68206,7.56909 -13.8388,19.18472 -20.91557,26.53208 -11.8504,12.3035 -23.50159,17.75613 -33.12171,15.50061 z"
         id="path949" />
    </g>
    <path
       d="M0 0L278 0L278 278L0 278L0 0Z"
       id="Background"
       fill="none"
       fill-rule="evenodd"
       stroke="none" />
  </g>
</svg>
